<svg width="110" height="64" viewBox="0 0 110 64" fill="none" xmlns="http://www.w3.org/2000/svg">
<g opacity="0.8">
<path fill-rule="evenodd" clip-rule="evenodd" d="M4.39615 4.70894C3.24798 6.6269 2.54468 9.04508 2.54468 11.0074C2.54468 14.9275 5.29668 17.8876 8.43787 17.8876C11.579 17.8876 14.3307 14.9276 14.3307 11.0074C14.3307 9.04507 13.6275 6.62688 12.4794 4.70892C11.303 2.74362 9.83752 1.57832 8.43787 1.57832C7.03821 1.57832 5.57266 2.74364 4.39615 4.70894ZM3.00567 3.91076C4.25375 1.82589 6.13775 0 8.43787 0C10.738 0 12.6219 1.82591 13.8699 3.91078C15.1463 6.04299 15.9425 8.73393 15.9425 11.0074C15.9425 15.5589 12.6963 19.4659 8.43787 19.4659C4.17949 19.4659 0.932892 15.5589 0.932892 11.0074C0.932892 8.73391 1.72924 6.04297 3.00567 3.91076Z" fill="white"/>
<path fill-rule="evenodd" clip-rule="evenodd" d="M15.4605 12.3379C15.4605 12.3379 10.8497 13.0682 9.56203 12.3379C9.18169 12.1221 8.78927 11.0636 8.35374 11.0627C7.91624 11.0616 7.51707 12.1221 7.13466 12.3379C5.86954 13.0519 1.3455 12.3379 1.3455 12.3379C1.04746 12.3379 0.806015 12.0925 0.806015 11.7899V8.09995C0.806015 7.79738 1.04746 7.55199 1.3455 7.55199H15.4605C15.7583 7.55199 16 7.79738 16 8.09995V11.7899C16 12.0925 15.7583 12.3379 15.4605 12.3379Z" fill="#3AD887"/>
<path fill-rule="evenodd" clip-rule="evenodd" d="M1.61179 8.34118V11.5795C1.62653 11.5817 1.64236 11.584 1.65925 11.5864C1.78127 11.6039 1.95809 11.6284 2.17462 11.6556C2.60862 11.7101 3.19764 11.7752 3.82238 11.8185C4.45064 11.862 5.0968 11.882 5.65058 11.8513C6.20396 11.8205 6.54628 11.7434 6.70178 11.6698C6.71358 11.657 6.73846 11.6291 6.77698 11.5781C6.83288 11.5041 6.88373 11.4292 6.94595 11.3376C6.97883 11.2891 7.01488 11.236 7.05653 11.1759C7.15877 11.0284 7.29859 10.8335 7.46277 10.6729C7.60781 10.531 7.9137 10.2726 8.35529 10.2736M1.61179 8.34118H15.194V11.5796C15.178 11.5819 15.1608 11.5845 15.1423 11.5871C15.0179 11.6051 14.8376 11.6301 14.6169 11.6579C14.1744 11.7137 13.5739 11.7803 12.937 11.8246C12.2965 11.8691 11.6375 11.8897 11.0726 11.8581C10.5085 11.8266 10.1576 11.7477 9.99698 11.6712C9.98518 11.6582 9.96092 11.6306 9.92372 11.581C9.86834 11.5071 9.81793 11.4321 9.75611 11.3401C9.72379 11.2921 9.68835 11.2393 9.64746 11.1797C9.54638 11.0324 9.40796 10.8374 9.24506 10.6765C9.10131 10.5344 8.79705 10.2746 8.3557 10.2736M15.5368 13.125C16.2685 13.0852 16.8058 12.4772 16.8058 11.7899V8.09998C16.8058 7.38896 16.2307 6.76286 15.4604 6.76286H1.34538C0.574581 6.76286 0 7.38917 0 8.09998V11.7899C0 12.4771 0.537038 13.0854 1.26923 13.125L1.27355 13.1257C1.30885 13.131 1.36005 13.1386 1.42524 13.148C1.55557 13.1667 1.74208 13.1925 1.96945 13.2211C2.42324 13.2781 3.0443 13.3469 3.7087 13.3929C4.3696 13.4386 5.09166 13.4632 5.74195 13.427C6.35334 13.393 7.04269 13.3006 7.53699 13.0216C7.79036 12.8786 7.97153 12.6507 8.07268 12.5169C8.15323 12.4102 8.24148 12.2804 8.3151 12.1721C8.32733 12.1541 8.33915 12.1367 8.35047 12.1201C8.36099 12.1357 8.37194 12.152 8.38324 12.1688C8.45624 12.2772 8.5439 12.4075 8.6241 12.5145C8.72436 12.6484 8.90461 12.877 9.15795 13.0208L9.158 13.0208C9.65845 13.3046 10.3582 13.3991 10.9809 13.4339C11.6427 13.4708 12.3779 13.4457 13.0511 13.3989C13.7278 13.3519 14.3605 13.2816 14.8228 13.2233C15.0544 13.1941 15.2444 13.1677 15.3771 13.1486C15.4435 13.139 15.4957 13.1312 15.5316 13.1258L15.5368 13.125ZM8.62221 11.7717C8.62218 11.7721 8.61849 11.7755 8.61125 11.7806C8.61862 11.7739 8.62224 11.7713 8.62221 11.7717ZM8.09124 11.7789C8.08401 11.7737 8.08033 11.7703 8.08029 11.7699C8.08026 11.7695 8.08388 11.7721 8.09124 11.7789Z" fill="white"/>
<path fill-rule="evenodd" clip-rule="evenodd" d="M10.1864 0.640157C10.4584 0.75617 10.5829 1.06617 10.4645 1.33257L10.3738 1.53645L10.4484 1.81706C10.4933 1.85472 10.5427 1.902 10.5881 1.95863C10.6655 2.05532 10.7877 2.25189 10.7469 2.51178C10.7194 2.68732 10.6294 2.82045 10.5247 2.91866L10.4509 3.11167C10.6343 3.2238 10.7695 3.3895 10.8515 3.55328C10.9655 3.78103 11.0163 4.08171 10.9087 4.37754C10.9217 4.40441 10.9432 4.44135 10.9759 4.48584C11.0221 4.54871 11.0769 4.60815 11.1264 4.65295C11.1508 4.67509 11.17 4.69008 11.182 4.69859C11.1828 4.69911 11.1835 4.69958 11.1841 4.70002C11.4437 4.81786 11.5646 5.11631 11.4544 5.37782C11.3413 5.64642 11.0272 5.77434 10.7529 5.66352C10.6117 5.60648 10.4846 5.50503 10.3964 5.42508C10.2964 5.33442 10.1934 5.22249 10.1037 5.1003C10.016 4.98104 9.9259 4.83157 9.87196 4.66605C9.82068 4.50872 9.78211 4.27209 9.89255 4.03237C9.89167 4.02856 9.88994 4.02301 9.88663 4.01639C9.88579 4.01473 9.88494 4.01315 9.88407 4.01167C9.74957 3.97652 9.62242 3.912 9.51806 3.81071C9.40288 3.69893 9.34433 3.57041 9.31721 3.46036C9.29104 3.35416 9.29271 3.26095 9.29854 3.19914C9.30159 3.16689 9.30616 3.13924 9.31053 3.11754C9.31274 3.1066 9.31496 3.09688 9.317 3.08855L9.31996 3.07701L9.32132 3.07198L9.32197 3.06966L9.32228 3.06854C9.32236 3.06827 9.32259 3.06745 9.84005 3.20895L9.32259 3.06745L9.32879 3.0457L9.53685 2.50129L9.51732 2.49117L9.24036 1.44972L9.4793 0.912445C9.59777 0.646051 9.91435 0.524143 10.1864 0.640157Z" fill="white"/>
<path d="M9.77138 1.72192C9.77138 1.72192 8.87898 1.80309 9.19172 2.35924C9.50425 2.91538 8.76382 3.16111 8.26842 3.37421" stroke="white" stroke-linecap="round"/>
</g>
<g opacity="0.8">
<path d="M23.588 16.4671C23.588 17.1826 24.1682 17.7298 24.8774 17.7298C25.6081 17.7298 26.1883 17.1826 26.1883 16.4671V11.3534C26.1883 9.62773 27.2414 8.59657 28.7457 8.59657C30.293 8.59657 31.1741 9.58565 31.1741 11.3113V16.4671C31.1741 17.1826 31.7544 17.7298 32.485 17.7298C33.2157 17.7298 33.7745 17.1826 33.7745 16.4671V10.5326C33.7745 7.96524 32.2916 6.28171 29.7343 6.28171C27.972 6.28171 26.919 7.18661 26.1883 8.21777V3.4197C26.1883 2.72524 25.6081 2.15704 24.8774 2.15704C24.1467 2.15704 23.588 2.72524 23.588 3.4197V16.4671Z" fill="white"/>
<path d="M40.1812 17.856C41.9219 17.856 43.1039 17.1405 43.8775 16.2356V16.6565C43.8775 17.2247 44.3933 17.7298 45.1455 17.7298C45.8547 17.7298 46.4134 17.2036 46.4134 16.5092V11.0377C46.4134 9.58565 46.0266 8.40717 45.1885 7.60749C44.3933 6.80781 43.1254 6.36588 41.4276 6.36588C39.9448 6.36588 38.8488 6.61841 37.7742 7.01825C37.3874 7.16556 37.065 7.5654 37.065 8.02837C37.065 8.61761 37.5593 9.08058 38.1611 9.08058C38.29 9.08058 38.419 9.05954 38.5694 9.01745C39.2786 8.74388 40.0952 8.57552 41.0838 8.57552C42.9105 8.57552 43.899 9.41729 43.899 10.9956V11.2692C43.0179 10.9956 42.1153 10.8062 40.8474 10.8062C38.0751 10.8062 36.1624 11.9847 36.1624 14.3837V14.4258C36.1624 16.6565 38.0536 17.856 40.1812 17.856ZM40.9119 16.0041C39.6654 16.0041 38.6983 15.3938 38.6983 14.3206V14.2785C38.6983 13.1211 39.6869 12.4266 41.3632 12.4266C42.3947 12.4266 43.2758 12.616 43.942 12.8685V13.6261C43.942 15.0361 42.6311 16.0041 40.9119 16.0041Z" fill="white"/>
<path d="M53.2266 17.8139C53.9143 17.8139 54.4516 17.7087 55.0103 17.5193C55.3757 17.372 55.698 16.9932 55.698 16.5302C55.698 15.941 55.1822 15.478 54.602 15.478C54.516 15.478 54.2581 15.5412 53.9573 15.5412C53.0762 15.5412 52.5604 15.1413 52.5604 14.1522V8.70179H54.602C55.2252 8.70179 55.741 8.21777 55.741 7.60749C55.741 6.99721 55.2252 6.51319 54.602 6.51319H52.5604V4.61921C52.5604 3.92476 51.9801 3.35656 51.271 3.35656C50.5403 3.35656 49.96 3.92476 49.96 4.61921V6.51319H49.5302C48.907 6.51319 48.4127 6.99721 48.4127 7.60749C48.4127 8.21777 48.907 8.70179 49.5302 8.70179H49.96V14.5521C49.96 16.9932 51.3139 17.8139 53.2266 17.8139Z" fill="white"/>
<path d="M63.1871 17.8771C65.0783 17.8771 66.3033 17.2457 67.3133 16.2987C67.5497 16.1093 67.6786 15.8358 67.6786 15.4991C67.6786 14.8888 67.1844 14.3837 66.5611 14.3837C66.2603 14.3837 66.0024 14.531 65.852 14.6573C65.1428 15.2465 64.3476 15.6464 63.3161 15.6464C61.3174 15.6464 59.9206 14.0681 59.9206 12.0899V12.0478C59.9206 10.1118 61.3175 8.51239 63.2086 8.51239C64.2402 8.51239 64.9708 8.91223 65.637 9.45938C65.809 9.58565 66.0883 9.71191 66.4107 9.71191C67.0769 9.71191 67.6142 9.20685 67.6142 8.55448C67.6142 8.1336 67.3778 7.81793 67.2059 7.67062C66.2388 6.8499 65.0138 6.28171 63.2301 6.28171C59.8131 6.28171 57.3202 8.93328 57.3202 12.0899V12.132C57.3202 15.2886 59.8131 17.8771 63.1871 17.8771Z" fill="white"/>
<path d="M70.2207 16.4671C70.2207 17.1826 70.801 17.7298 71.5102 17.7298C72.2409 17.7298 72.8211 17.1826 72.8211 16.4671V11.3534C72.8211 9.62773 73.8741 8.59657 75.3785 8.59657C76.9258 8.59657 77.8069 9.58565 77.8069 11.3113V16.4671C77.8069 17.1826 78.3871 17.7298 79.1178 17.7298C79.8485 17.7298 80.4072 17.1826 80.4072 16.4671V10.5326C80.4072 7.96524 78.9244 6.28171 76.367 6.28171C74.6048 6.28171 73.5518 7.18661 72.8211 8.21777V3.4197C72.8211 2.72524 72.2409 2.15704 71.5102 2.15704C70.7795 2.15704 70.2207 2.72524 70.2207 3.4197V16.4671Z" fill="white"/>
</g>
<path d="M80.8583 34.4601C80.8583 26.155 88.8914 24.4052 99.938 24.0365C104.091 23.8979 106.677 28.3594 104.571 31.8666L103.265 34.0391C101.9 36.3116 102.621 39.1929 104.455 41.1064C107.516 44.298 109.333 48.4554 109.333 54.4521C109.333 63.9223 99.4645 64.1153 82.7724 63.9772C78.7312 63.9438 76.1301 59.7172 78.0098 56.2139L82.6892 47.4929C83.6307 45.7384 83.3696 43.6234 82.4916 41.8363C81.4709 39.7587 80.8583 37.3144 80.8583 34.4601Z" fill="#DD6814"/>
<mask id="mask0_2_11" style="mask-type:alpha" maskUnits="userSpaceOnUse" x="77" y="24" width="33" height="40">
<path d="M80.8583 34.4601C80.8583 26.155 88.8914 24.4052 99.938 24.0365C104.091 23.8979 106.677 28.3594 104.571 31.8666L103.358 33.8852C101.934 36.2562 102.702 39.2338 104.602 41.2606C107.573 44.4317 109.333 48.5515 109.333 54.4521C109.333 63.9223 99.4645 64.1153 82.7724 63.9772C78.7312 63.9438 76.1301 59.7172 78.0098 56.2139L82.6343 47.5954C83.6123 45.7725 83.3356 43.5903 82.4388 41.7279C81.4499 39.6738 80.8583 37.2649 80.8583 34.4601Z" fill="#DD6814"/>
</mask>
<g mask="url(#mask0_2_11)">
<g filter="url(#filter0_d_2_11)">
<path d="M80.8583 34.4601C80.8583 26.155 88.8914 24.4052 99.938 24.0365C104.091 23.8979 106.677 28.3594 104.571 31.8666L103.358 33.8852C102.21 35.7955 97.4754 40.4264 98.588 42.8778C100.737 47.6128 109.323 46.5606 109.323 54.9782C108.259 63.9772 99.1497 64.1127 82.7724 63.9772C78.7312 63.9438 76.1301 59.7172 78.0098 56.2139C79.9967 52.7146 90.5291 54.4521 92.1409 52.3477C93.7526 50.2433 84.5832 46.823 82.6343 42.1625C82.573 42.0159 82.5077 41.8709 82.4388 41.7279C81.4499 39.6738 80.8583 37.2649 80.8583 34.4601Z" fill="#DD6814"/>
</g>
</g>
<path d="M0.806015 58.5185V29.341C0.806015 26.3568 3.21142 23.9377 6.17865 23.9377H19.422C23.9771 23.9377 26.4654 29.2807 23.5493 32.8L20.3404 36.6727C18.6743 38.6834 18.6807 41.606 20.3558 43.6093L29.9143 55.0409C32.8532 58.5557 30.3686 63.9217 25.8023 63.9217H6.17865C3.21142 63.9217 0.806015 61.5026 0.806015 58.5185Z" fill="#187BEF"/>
<mask id="mask1_2_11" style="mask-type:alpha" maskUnits="userSpaceOnUse" x="0" y="23" width="32" height="41">
<path d="M0.806015 58.5185V29.341C0.806015 26.3568 3.21142 23.9377 6.17865 23.9377H19.422C23.9771 23.9377 26.4654 29.2807 23.5493 32.8L20.3404 36.6727C18.6743 38.6834 18.6807 41.606 20.3558 43.6093L29.9143 55.0409C32.8532 58.5557 30.3686 63.9217 25.8023 63.9217H6.17865C3.21142 63.9217 0.806015 61.5026 0.806015 58.5185Z" fill="#0063BF"/>
</mask>
<g mask="url(#mask1_2_11)">
<g filter="url(#filter1_d_2_11)">
<path d="M0.806904 58.5185V29.341C0.806904 26.3568 3.21231 23.9377 6.17954 23.9377H19.4229C23.978 23.9377 26.4663 29.2807 23.5502 32.8L20.3413 36.6727C18.718 38.6317 2.95596 51.2239 0.806904 58.5185C0.806904 59.7532 0.320211 61.3284 0.467525 60.1024C0.524326 59.6298 0.634493 59.1037 0.806904 58.5185Z" fill="#187BEF"/>
</g>
</g>
<path d="M31.9674 29.341V58.5185C31.9674 61.5026 34.3728 63.9217 37.3401 63.9217H40.5636C43.5308 63.9217 45.9363 61.5026 45.9363 58.5185V29.341C45.9363 26.3568 43.5308 23.9377 40.5636 23.9377H37.3401C34.3728 23.9377 31.9674 26.3568 31.9674 29.341Z" fill="#4FD9B8"/>
<mask id="mask2_2_11" style="mask-type:alpha" maskUnits="userSpaceOnUse" x="31" y="23" width="15" height="41">
<path d="M31.9674 29.341V58.5185C31.9674 61.5026 34.3728 63.9217 37.3401 63.9217H40.5636C43.5308 63.9217 45.9363 61.5026 45.9363 58.5185V29.341C45.9363 26.3568 43.5308 23.9377 40.5636 23.9377H37.3401C34.3728 23.9377 31.9674 26.3568 31.9674 29.341Z" fill="#00EADC"/>
</mask>
<g mask="url(#mask2_2_11)">
<g filter="url(#filter2_d_2_11)">
<path fill-rule="evenodd" clip-rule="evenodd" d="M31.9674 32.5829V29.341C31.9674 26.3568 34.3728 23.9377 37.3401 23.9377H40.5636C43.5308 23.9377 45.9363 26.3568 45.9363 29.341V32.5829C45.9363 35.567 43.5308 37.9861 40.5636 37.9861H37.3401C34.3728 37.9861 31.9674 35.567 31.9674 32.5829ZM31.9674 58.5184V45.0103C31.9674 42.0262 34.3728 39.607 37.34 39.607H40.5636C43.5308 39.607 45.9362 42.0262 45.9362 45.0103V58.5184C45.9362 61.5025 43.5308 63.9216 40.5636 63.9216H37.34C34.3728 63.9216 31.9674 61.5025 31.9674 58.5184Z" fill="#4FD9B8"/>
</g>
</g>
<path d="M48.0851 58.9217V28.9377C48.0851 26.1763 50.3236 23.9377 53.0851 23.9377H57.7799C66.9361 23.9377 74.4765 30.4216 76.6309 42.3087C78.7853 54.1959 73.3993 63.9217 62.0887 63.9217H53.0808C50.3194 63.9217 48.0851 61.6831 48.0851 58.9217Z" fill="#F8BA1C"/>
<mask id="mask3_2_11" style="mask-type:alpha" maskUnits="userSpaceOnUse" x="48" y="23" width="30" height="41">
<path d="M48.0851 58.9217V28.9377C48.0851 26.1763 50.3237 23.9377 53.0851 23.9377H57.7559C66.8894 23.9377 74.411 30.4216 76.5601 42.3087C78.7092 54.1959 73.3365 63.9217 62.054 63.9217H53.0809C50.3194 63.9217 48.0851 61.6831 48.0851 58.9217Z" fill="#F0B41A"/>
</mask>
<g mask="url(#mask3_2_11)">
<g filter="url(#filter3_d_2_11)">
<path d="M48.0851 29.341V58.5185C48.0851 61.5026 50.4906 63.9217 53.4578 63.9217H59.9049C59.9049 63.9217 59.9049 63.9217 59.9049 58.5185V29.341C59.9049 23.9377 59.9049 23.9377 54.5323 23.9377H53.4578C50.4906 23.9377 48.0851 26.3568 48.0851 29.341Z" fill="#F8BA1C"/>
</g>
</g>
<defs>
<filter id="filter0_d_2_11" x="69.3868" y="16.0333" width="47.9359" height="55.9678" filterUnits="userSpaceOnUse" color-interpolation-filters="sRGB">
<feFlood flood-opacity="0" result="BackgroundImageFix"/>
<feColorMatrix in="SourceAlpha" type="matrix" values="0 0 0 0 0 0 0 0 0 0 0 0 0 0 0 0 0 0 127 0" result="hardAlpha"/>
<feOffset/>
<feGaussianBlur stdDeviation="4"/>
<feColorMatrix type="matrix" values="0 0 0 0 0 0 0 0 0 0 0 0 0 0 0 0 0 0 0.4 0"/>
<feBlend mode="normal" in2="BackgroundImageFix" result="effect1_dropShadow_2_11"/>
<feBlend mode="normal" in="SourceGraphic" in2="effect1_dropShadow_2_11" result="shape"/>
</filter>
<filter id="filter1_d_2_11" x="-7.56024" y="15.9377" width="40.366" height="52.6082" filterUnits="userSpaceOnUse" color-interpolation-filters="sRGB">
<feFlood flood-opacity="0" result="BackgroundImageFix"/>
<feColorMatrix in="SourceAlpha" type="matrix" values="0 0 0 0 0 0 0 0 0 0 0 0 0 0 0 0 0 0 127 0" result="hardAlpha"/>
<feOffset/>
<feGaussianBlur stdDeviation="4"/>
<feColorMatrix type="matrix" values="0 0 0 0 0 0 0 0 0 0 0 0 0 0 0 0 0 0 0.4 0"/>
<feBlend mode="normal" in2="BackgroundImageFix" result="effect1_dropShadow_2_11"/>
<feBlend mode="normal" in="SourceGraphic" in2="effect1_dropShadow_2_11" result="shape"/>
</filter>
<filter id="filter2_d_2_11" x="23.9674" y="15.9377" width="29.9688" height="55.9839" filterUnits="userSpaceOnUse" color-interpolation-filters="sRGB">
<feFlood flood-opacity="0" result="BackgroundImageFix"/>
<feColorMatrix in="SourceAlpha" type="matrix" values="0 0 0 0 0 0 0 0 0 0 0 0 0 0 0 0 0 0 127 0" result="hardAlpha"/>
<feOffset/>
<feGaussianBlur stdDeviation="4"/>
<feColorMatrix type="matrix" values="0 0 0 0 0 0 0 0 0 0 0 0 0 0 0 0 0 0 0.4 0"/>
<feBlend mode="normal" in2="BackgroundImageFix" result="effect1_dropShadow_2_11"/>
<feBlend mode="normal" in="SourceGraphic" in2="effect1_dropShadow_2_11" result="shape"/>
</filter>
<filter id="filter3_d_2_11" x="38.0851" y="13.9377" width="31.8198" height="59.984" filterUnits="userSpaceOnUse" color-interpolation-filters="sRGB">
<feFlood flood-opacity="0" result="BackgroundImageFix"/>
<feColorMatrix in="SourceAlpha" type="matrix" values="0 0 0 0 0 0 0 0 0 0 0 0 0 0 0 0 0 0 127 0" result="hardAlpha"/>
<feOffset/>
<feGaussianBlur stdDeviation="5"/>
<feColorMatrix type="matrix" values="0 0 0 0 0 0 0 0 0 0 0 0 0 0 0 0 0 0 0.4 0"/>
<feBlend mode="normal" in2="BackgroundImageFix" result="effect1_dropShadow_2_11"/>
<feBlend mode="normal" in="SourceGraphic" in2="effect1_dropShadow_2_11" result="shape"/>
</filter>
</defs>
</svg>
